<?xml version="1.0" encoding="UTF-8"?>
<svg version="1.1" xmlns="http://www.w3.org/2000/svg" width="31.88" height="32">
<path d="M0 0 C1.43812643 -0.00899006 2.87625203 -0.01811224 4.31437683 -0.02735901 C7.31743627 -0.04376484 10.32038534 -0.05153373 13.32348633 -0.05444336 C17.13951358 -0.05982076 20.9544792 -0.09750905 24.77020741 -0.14318752 C27.73796727 -0.17317674 30.705478 -0.18017159 33.67337608 -0.18116951 C35.07858839 -0.18532807 36.48380454 -0.19758301 37.88886452 -0.21868706 C50.48881641 -0.39290663 60.33184026 2.09178433 69.6796875 10.8203125 C71.10546875 12.37109375 71.10546875 12.37109375 72.10546875 14.37109375 C74.34448556 14.72131429 76.59893476 14.97405845 78.85546875 15.18359375 C94.07535256 16.92712126 105.38696371 23.31921337 115.31640625 34.91015625 C122.17663748 44.34671885 124.42490492 54.49692134 124.30078125 65.8984375 C124.29653641 67.38181358 124.29653641 67.38181358 124.29220581 68.89515686 C124.28107017 72.0330957 124.25597778 75.17074214 124.23046875 78.30859375 C124.2204304 80.44465732 124.21130605 82.58072539 124.203125 84.71679688 C124.18115255 89.93499448 124.14774129 95.15302321 124.10546875 100.37109375 C124.71519531 100.66757813 125.32492187 100.9640625 125.953125 101.26953125 C132.74755438 104.74689801 136.42834399 110.22210916 139.2265625 117.14453125 C141.57989189 125.78386492 141.25731537 136.14687841 137.36328125 144.26171875 C132.87474493 151.78907779 127.08264604 156.19357868 119.10546875 159.68359375 C115.31753432 160.55166206 111.98693545 160.50493743 108.10546875 160.37109375 C108.151875 161.13550781 108.19828125 161.89992187 108.24609375 162.6875 C108.88052082 181.51638907 101.33636827 199.24881801 89.10546875 213.37109375 C88.44546875 214.25796875 87.78546875 215.14484375 87.10546875 216.05859375 C84.41702456 219.16710735 81.45119539 221.9730483 78.10546875 224.37109375 C77.44546875 224.37109375 76.78546875 224.37109375 76.10546875 224.37109375 C76.10546875 237.90109375 76.10546875 251.43109375 76.10546875 265.37109375 C79.07546875 265.70109375 82.04546875 266.03109375 85.10546875 266.37109375 C87.68198235 266.7893736 90.25424151 267.23471246 92.8215332 267.70629883 C93.53508972 267.83656967 94.24864624 267.96684052 94.98382568 268.10105896 C97.31279761 268.52739093 99.64082724 268.95860336 101.96875 269.390625 C103.60865131 269.69353206 105.24855926 269.99640312 106.88847351 270.29924011 C110.31567486 270.93313084 113.74232883 271.56989641 117.16870117 272.20825195 C121.52760567 273.01975121 125.88843741 273.82033756 130.24984455 274.61826038 C133.63557572 275.23962555 137.01982803 275.86877463 140.40373802 276.4999752 C142.00933335 276.7981603 143.61544567 277.09357716 145.22210121 277.38599586 C164.86194705 280.96765091 182.33753243 286.37702419 194.85546875 303.05859375 C200.55240867 311.60400364 204.23403571 321.46232946 204.22572327 331.73651123 C204.22778526 333.70105003 204.22778526 333.70105003 204.22988892 335.70527649 C204.22634997 337.15475487 204.22271516 338.60423301 204.21899414 340.05371094 C204.21871204 341.5813751 204.21887045 343.1090394 204.21943665 344.63670349 C204.21972373 348.78304047 204.2138413 352.92934856 204.20686269 357.07567883 C204.20061442 361.40919537 204.20002418 365.74271256 204.19883728 370.07623291 C204.19572832 378.28198571 204.18752078 386.48772521 204.17748779 394.69347215 C204.16631317 404.03558606 204.1608128 413.37770061 204.15579236 422.71981955 C204.14533782 441.9369185 204.12774677 461.15400505 204.10546875 480.37109375 C158.78156971 480.43954638 113.45766475 480.50323154 68.13372803 480.54046631 C67.12800376 480.54129465 67.12800376 480.54129465 66.10196184 480.54213973 C51.53163167 480.55411051 36.96130095 480.56519136 22.39096941 480.57535507 C15.24599771 480.58034455 8.10102617 480.58553074 0.95605469 480.59082031 C0.2450326 480.59134335 -0.46598948 480.59186638 -1.19855769 480.59240527 C-24.25748081 480.60945993 -47.31636481 480.63951206 -70.37526421 480.67628263 C-94.06525855 480.71399108 -117.75523123 480.73863043 -141.44525508 480.74675371 C-156.71564481 480.75201784 -171.98593894 480.76884622 -187.25629523 480.80275962 C-197.25665819 480.82384275 -207.25696277 480.8303079 -217.25734636 480.82509926 C-223.03397913 480.8225278 -228.81041513 480.82657224 -234.58701324 480.84791565 C-239.86966827 480.86729235 -245.15199305 480.86842179 -250.43466285 480.85468933 C-252.35128246 480.85299056 -254.26792217 480.85813969 -256.18450186 480.87062648 C-258.77956855 480.88655806 -261.37342548 480.87810307 -263.96847153 480.86328506 C-264.7216319 480.87379312 -265.47479228 480.88430117 -266.25077569 480.89512765 C-269.65393574 480.85087511 -271.57262608 480.60493527 -274.3584497 478.58122993 C-276.72465259 475.17670326 -276.44564064 471.71384447 -276.40246582 467.71679688 C-276.40870578 466.83415413 -276.41494575 465.95151138 -276.4213748 465.04212189 C-276.43735521 462.07859239 -276.42468078 459.11587964 -276.41210938 456.15234375 C-276.41752824 454.03018717 -276.42464957 451.90803434 -276.43334961 449.78588867 C-276.45161375 444.0173524 -276.44450257 438.24910169 -276.43183327 432.4805603 C-276.42172166 426.44992287 -276.43109383 420.41931025 -276.43737793 414.38867188 C-276.44465969 404.26037191 -276.43505271 394.13218853 -276.41601562 384.00390625 C-276.39424596 372.28633532 -276.40129695 360.56904276 -276.42332125 348.85147858 C-276.44146014 338.79958967 -276.44404095 328.74778468 -276.43356657 318.6958847 C-276.42732335 312.68856746 -276.42651882 306.68138115 -276.43971252 300.67407227 C-276.45124835 295.02693622 -276.44328657 289.38015984 -276.4201355 283.73306274 C-276.4148363 281.65777179 -276.41638276 279.58245068 -276.42518616 277.50717163 C-276.43607733 274.67949955 -276.42245591 271.85298824 -276.40246582 269.02539062 C-276.41585015 267.78629314 -276.41585015 267.78629314 -276.42950487 266.52216339 C-276.38198098 263.06909971 -276.16254207 260.78625884 -274.2700119 257.85461426 C-271.13286588 255.8954232 -269.06505576 255.91344785 -265.37890625 255.98046875 C-263.50332031 255.99980469 -263.50332031 255.99980469 -261.58984375 256.01953125 C-259.63691406 256.06980469 -259.63691406 256.06980469 -257.64453125 256.12109375 C-256.32710938 256.13914062 -255.0096875 256.1571875 -253.65234375 256.17578125 C-250.39900817 256.22293104 -247.147135 256.28873331 -243.89453125 256.37109375 C-243.89821842 255.76517395 -243.90190559 255.15925415 -243.9057045 254.53497314 C-243.99416643 239.76956819 -244.0602947 225.00417894 -244.10177994 210.23857117 C-244.12237686 203.09791528 -244.1504421 195.95743663 -244.19628906 188.81689453 C-244.23624528 182.59083623 -244.26198493 176.36490634 -244.27088523 170.13872337 C-244.27608529 166.84404918 -244.2903665 163.54982641 -244.31745148 160.25524902 C-244.34653259 156.57098713 -244.35048509 152.8874834 -244.34863281 149.203125 C-244.36301392 148.11914932 -244.37739502 147.03517365 -244.39221191 145.91835022 C-244.35086199 138.30598817 -243.08280802 133.00940561 -237.9296875 127.12890625 C-237.27871094 126.59007812 -236.62773437 126.05125 -235.95703125 125.49609375 C-235.30863281 124.94179687 -234.66023438 124.3875 -233.9921875 123.81640625 C-227.49095568 119.33697278 -220.52312208 119.69645647 -212.89453125 120.37109375 C-206.23493792 122.05194958 -201.70905678 126.83487697 -197.89453125 132.37109375 C-195.68341044 136.58967951 -195.6535752 140.52305234 -195.76953125 145.18359375 C-195.77855469 145.87646484 -195.78757812 146.56933594 -195.796875 147.28320312 C-195.82026968 148.9793177 -195.85613484 150.67525246 -195.89453125 152.37109375 C-194.90453125 152.3246875 -193.91453125 152.27828125 -192.89453125 152.23046875 C-178.53219481 151.75026905 -178.53219481 151.75026905 -172.89453125 156.37109375 C-168.15180621 160.89652263 -164.25882941 165.29764311 -163.65402222 172.06037903 C-163.65846344 173.02634506 -163.66290466 173.9923111 -163.66748047 174.98754883 C-163.66763153 176.08831253 -163.66778259 177.18907623 -163.66793823 178.32319641 C-163.6782608 179.50044785 -163.68858337 180.67769928 -163.69921875 181.890625 C-163.70204865 183.10433273 -163.70487854 184.31804047 -163.70779419 185.56852722 C-163.71897817 189.44031686 -163.74407995 193.31187416 -163.76953125 197.18359375 C-163.77956333 199.81054353 -163.78868879 202.43749694 -163.796875 205.06445312 C-163.81891174 211.50008936 -163.85342978 217.93555217 -163.89453125 224.37109375 C-169.17453125 224.37109375 -174.45453125 224.37109375 -179.89453125 224.37109375 C-179.92426025 222.22927612 -179.92426025 222.22927612 -179.95458984 220.04418945 C-180.03071468 214.74192803 -180.11942191 209.43993855 -180.21191406 204.13793945 C-180.2501753 201.84404879 -180.28503314 199.55009872 -180.31640625 197.25610352 C-180.36211831 193.95697815 -180.42010347 190.65826079 -180.48046875 187.359375 C-180.49201996 186.33524002 -180.50357117 185.31110504 -180.51547241 184.25593567 C-180.5353421 183.29531723 -180.55521179 182.33469879 -180.57568359 181.3449707 C-180.58900726 180.50335892 -180.60233093 179.66174713 -180.61605835 178.79463196 C-180.93562177 176.01348465 -181.66266262 173.88075543 -182.89453125 171.37109375 C-187.1102801 168.89124148 -190.81992459 169.00541958 -195.89453125 168.37109375 C-195.89453125 197.41109375 -195.89453125 226.45109375 -195.89453125 256.37109375 C-185.00453125 256.37109375 -174.11453125 256.37109375 -162.89453125 256.37109375 C-150.56016699 260.85631712 -150.56016699 260.85631712 -146.95703125 263.99609375 C-144.35731949 266.22164139 -142.0214625 267.95802862 -138.89453125 269.37109375 C-138.43304688 268.92378906 -137.9715625 268.47648437 -137.49609375 268.015625 C-130.54793541 261.57553357 -122.48690392 256.23820208 -112.73101807 256.25083923 C-111.49851067 256.24877724 -111.49851067 256.24877724 -110.24110413 256.24667358 C-109.34846359 256.25026886 -108.45582306 256.25386414 -107.53613281 256.25756836 C-106.11611214 256.25734932 -106.11611214 256.25734932 -104.66740417 256.25712585 C-101.53996485 256.25782222 -98.41258517 256.26560177 -95.28515625 256.2734375 C-93.11610954 256.27530266 -90.94706242 256.2767261 -88.77801514 256.27772522 C-83.07011756 256.28154269 -77.36224543 256.29136644 -71.65435791 256.3024292 C-65.82947128 256.31265985 -60.00458053 256.31722639 -54.1796875 256.32226562 C-42.7512891 256.33298937 -31.32291628 256.35057997 -19.89453125 256.37109375 C-19.89453125 245.81109375 -19.89453125 235.25109375 -19.89453125 224.37109375 C-21.21453125 223.71109375 -22.53453125 223.05109375 -23.89453125 222.37109375 C-39.40828937 210.89091274 -48.61578679 192.06987273 -51.89453125 173.37109375 C-52.1657375 169.00956374 -52.1592569 164.73171344 -51.89453125 160.37109375 C-53.00828125 160.45359375 -54.12203125 160.53609375 -55.26953125 160.62109375 C-62.80275768 160.59442746 -69.85714818 157.32754346 -75.296875 152.18359375 C-81.49441163 145.15264755 -84.53057775 137.74896217 -84.89453125 128.37109375 C-84.22946111 118.40834305 -80.63561222 110.61775579 -73.89453125 103.37109375 C-70.39453125 100.37109375 -70.39453125 100.37109375 -67.89453125 100.37109375 C-67.904524 99.52783539 -67.904524 99.52783539 -67.91471863 98.6675415 C-67.98162281 92.76165548 -68.0265578 86.8558789 -68.05932617 80.94970703 C-68.07431665 78.75207132 -68.09471591 76.55446504 -68.12084961 74.35693359 C-68.37900582 52.07450963 -65.56245928 34.2850609 -49.453125 17.734375 C-35.06166119 4.44149622 -19.14800503 0.06246211 0 0 Z " fill="#000000" transform="translate(291.89453125,15.62890625)"/>
<path d="M0 0 C0.93234813 -0.00024107 1.86469625 -0.00048214 2.82529736 -0.00073051 C5.83504559 0.00075898 8.84454429 0.01597518 11.85424805 0.03173828 C13.71569703 0.03467984 15.57714766 0.03671959 17.43859863 0.0378418 C24.33107996 0.04831605 31.22352584 0.07623853 38.1159668 0.10205078 C61.2262793 0.16392578 61.2262793 0.16392578 84.8034668 0.22705078 C84.8034668 53.02705078 84.8034668 105.82705078 84.8034668 160.22705078 C37.5534668 160.41455078 37.5534668 160.41455078 22.69702148 160.43481445 C18.2584277 160.46473419 18.2584277 160.46473419 13.81988525 160.50117493 C11.86045162 160.51415583 9.9009387 160.51753924 7.94146729 160.51301575 C-8.25562872 160.4844448 -8.25562872 160.4844448 -23.1965332 166.22705078 C-24.5275862 166.89825874 -25.86058652 167.56563662 -27.1965332 168.22705078 C-27.29004748 148.80768943 -27.36054715 129.38837388 -27.40378189 109.96883392 C-27.42439169 100.95163946 -27.45248198 91.93458504 -27.49829102 82.91748047 C-27.5382073 75.05655335 -27.56397752 67.19572767 -27.57288718 59.33470201 C-27.57809384 55.17376678 -27.59029817 51.01312173 -27.61945343 46.85227966 C-27.64669843 42.93212178 -27.65496 39.01237233 -27.64896393 35.09212875 C-27.65006012 33.65706535 -27.65796008 32.22198762 -27.6733551 30.78700638 C-27.76833687 21.47314792 -27.39562376 14.95947842 -21.01293945 7.76611328 C-19.89725586 6.81865234 -19.89725586 6.81865234 -18.7590332 5.85205078 C-18.01782227 5.20494141 -17.27661133 4.55783203 -16.51293945 3.89111328 C-11.13609505 0.02848981 -6.39662649 -0.05336148 0 0 Z " fill="#ECD460" transform="translate(187.196533203125,287.77294921875)"/>
<path d="M0 0 C5.28 0 10.56 0 16 0 C16.03738281 1.24136719 16.07476562 2.48273438 16.11328125 3.76171875 C16.1789595 5.40367511 16.2454062 7.04560087 16.3125 8.6875 C16.33505859 9.50412109 16.35761719 10.32074219 16.38085938 11.16210938 C16.79026717 20.35517533 21.2164466 24.51801946 27.5625 30.75 C28.24763672 31.43449219 28.93277344 32.11898437 29.63867188 32.82421875 C34.17346193 37.31895668 36.10084829 39.10788497 42.64306641 39.20532227 C44.41467636 39.2352401 44.41467636 39.2352401 46.22207642 39.26576233 C48.14242203 39.29083107 48.14242203 39.29083107 50.1015625 39.31640625 C52.06166763 39.3475779 52.06166763 39.3475779 54.06137085 39.37937927 C57.536689 39.43459294 61.01206653 39.48400525 64.48748779 39.53222656 C68.033379 39.58244677 71.5791839 39.63813012 75.125 39.69335938 C82.08326012 39.8009323 89.04160031 39.90187439 96 40 C96 34.72 96 29.44 96 24 C84.12 24 72.24 24 60 24 C60.99 22.02 61.98 20.04 63 18 C63.48459217 15.70266332 63.48459217 15.70266332 63.51171875 13.4765625 C63.54716797 12.68378906 63.58261719 11.89101563 63.61914062 11.07421875 C63.64169922 10.26597656 63.66425781 9.45773437 63.6875 8.625 C63.72166016 7.79355469 63.75582031 6.96210938 63.79101562 6.10546875 C63.87287146 4.07076649 63.93812701 2.03540792 64 0 C67.96509139 -0.09990539 71.92968163 -0.17194834 75.89575195 -0.21972656 C77.89756051 -0.24940781 79.89901919 -0.30027058 81.90039062 -0.3515625 C90.91619768 -0.44240187 97.5749931 0.22354373 104.55859375 6.18359375 C105.17863281 6.92738281 105.79867187 7.67117188 106.4375 8.4375 C107.07558594 9.17871094 107.71367187 9.91992188 108.37109375 10.68359375 C111.51005521 15.14739266 112.24957455 18.8792069 112.24050903 24.29585266 C112.24325836 25.56484909 112.24600769 26.83384552 112.24884033 28.14129639 C112.24176296 29.53991794 112.23449336 30.93853854 112.22705078 32.3371582 C112.2264864 33.81570935 112.22680376 35.29426106 112.22793579 36.77281189 C112.22850924 40.78070169 112.21675613 44.7884716 112.20278788 48.79633355 C112.1902793 52.98703417 112.18910992 57.17773758 112.18673706 61.36845398 C112.18052267 69.30149063 112.16411239 77.2344721 112.14403808 85.16748446 C112.12167783 94.20006893 112.11068533 103.23265604 112.10064721 112.26526129 C112.07974614 130.8435388 112.04457093 149.42176496 112 168 C111.03900391 167.49339844 111.03900391 167.49339844 110.05859375 166.9765625 C101.72092445 162.67725762 94.82901468 160.70462275 85.48461914 160.68115234 C84.54211776 160.67099909 83.59961637 160.66084583 82.62855434 160.6503849 C79.59742521 160.61990857 76.56638923 160.60263851 73.53515625 160.5859375 C71.6558757 160.56899013 69.77660279 160.55117208 67.89733887 160.5324707 C60.95248025 160.46943969 54.00747719 160.42322821 47.0625 160.375 C31.531875 160.25125 16.00125 160.1275 0 160 C0 107.2 0 54.4 0 0 Z " fill="#F9E78F" transform="translate(32,288)"/>
<path d="M0 0 C10.15769183 1.31734819 20.17283861 3.1014267 30.21728516 5.08666992 C32.65587184 5.56860112 35.09541136 6.04545439 37.53515625 6.52148438 C39.09901455 6.82783815 40.66281874 7.13446832 42.2265625 7.44140625 C42.94945465 7.58308731 43.6723468 7.72476837 44.41714478 7.8707428 C47.63241736 8.50695447 50.83167999 9.15760082 54 10 C53.4539041 15.67029577 51.29513092 20.06191066 48.75 25.0625 C48.30962402 25.93302002 47.86924805 26.80354004 47.41552734 27.70043945 C34.06349922 53.58707185 16.68805767 77.8589213 -2.87890625 99.421875 C-4.88872196 101.64979627 -6.61210165 103.85661009 -8.21484375 106.390625 C-10.80573854 109.94229097 -12.85788062 112.48510723 -17 114 C-26.93675355 115.32679861 -37.03302282 114.62411812 -47 114 C-47 119.28 -47 124.56 -47 130 C-23.24 130 0.52 130 25 130 C25 151.12 25 172.24 25 194 C-4.04 194 -33.08 194 -63 194 C-63.22166772 179.61398906 -63.44252737 165.23274946 -63.55279255 150.846385 C-63.61302753 143.1097729 -63.68896106 135.37452434 -63.82983398 127.63891602 C-64.97110663 63.71483059 -64.97110663 63.71483059 -52 34 C-51.34 33.34 -50.68 32.68 -50 32 C-41.63850773 38.519351 -33.34649418 45.11259556 -25.15625 51.84643555 C-24.51171875 52.37406494 -23.8671875 52.90169434 -23.203125 53.4453125 C-22.63239258 53.91469238 -22.06166016 54.38407227 -21.47363281 54.86767578 C-18.32499695 57.28705503 -15.90905577 57.23932995 -12 57 C-8.73426771 55.29276729 -8.73426771 55.29276729 -8.1628418 52.02539062 C-7.94797119 50.74857422 -7.73310059 49.47175781 -7.51171875 48.15625 C-7.3905217 47.45318726 -7.26932465 46.75012451 -7.14445496 46.02575684 C-6.74703273 43.68617146 -6.37141185 41.34384859 -6 39 C-5.8691803 38.18724609 -5.7383606 37.37449219 -5.60357666 36.53710938 C-4.64004329 30.52969467 -3.72207017 24.51578207 -2.8125 18.5 C-2.53735917 16.69397234 -2.26196988 14.88798252 -1.98632812 13.08203125 C-1.32136527 8.72178324 -0.65972623 4.36104327 0 0 Z " fill="#733A1F" transform="translate(391,302)"/>
<path d="M0 0 C12.19850121 2.16425021 20.95483054 7.03422982 28.5 16.9765625 C34.89031302 26.52399445 35.43025188 35.70797524 35.34057617 46.97485352 C35.33972864 48.47369876 35.3402075 49.97254525 35.34190369 51.47138977 C35.34276015 55.51629314 35.32519139 59.56092654 35.30418181 63.60576749 C35.28535643 67.84181406 35.28365997 72.07786764 35.28010559 76.31394958 C35.27080228 84.32480098 35.24621184 92.33552873 35.21605712 100.34632581 C35.18245959 109.47089 35.16601367 118.59546026 35.15097082 127.72007096 C35.11966063 146.48013153 35.06467014 165.24002272 35 184 C13.88 184 -7.24 184 -29 184 C-29 162.88 -29 141.76 -29 120 C-52.76 120 -76.52 120 -101 120 C-101 114.72 -101 109.44 -101 104 C-98.99679687 104.09023438 -96.99359375 104.18046875 -94.9296875 104.2734375 C-78.51887725 105.23350665 -78.51887725 105.23350665 -64.33984375 98.48120117 C-62.15333366 96.02493105 -60.14128436 93.51351985 -58.26416016 90.81298828 C-56.47462025 88.24652955 -54.41542837 85.93168391 -52.375 83.5625 C-50.9154586 81.70928413 -49.45718957 79.85506568 -48 78 C-47.11879777 76.9402798 -46.23451785 75.88311352 -45.34765625 74.828125 C-28.7379152 54.88565756 -5.79394665 26.06015658 0 0 Z " fill="#60301A" transform="translate(445,312)"/>
<path d="M0 0 C0.91756577 -0.00029205 1.83513153 -0.00058411 2.78050232 -0.00088501 C5.80518132 0.00050531 8.82961221 0.01605263 11.85424805 0.03173828 C13.95460373 0.03546947 16.05496116 0.03831594 18.15531921 0.04031372 C23.6774681 0.04794186 29.19951141 0.06758339 34.72161865 0.08972168 C40.35891288 0.11019771 45.99622421 0.1193192 51.63354492 0.12939453 C62.69023187 0.15082999 73.74684055 0.18495612 84.8034668 0.22705078 C85.97127483 13.25063836 87.04463171 25.62849311 78.75938416 36.47651672 C77.03543181 38.5003902 75.23301517 40.39728217 73.3659668 42.28955078 C72.42211624 43.29684738 72.42211624 43.29684738 71.459198 44.32449341 C59.65896021 56.34825128 46.6823501 58.14368207 30.6141901 58.34755421 C16.64726699 58.3740845 2.70766396 57.47641342 -11.1965332 56.22705078 C-11.1965332 61.50705078 -11.1965332 66.78705078 -11.1965332 72.22705078 C4.6434668 72.22705078 20.4834668 72.22705078 36.8034668 72.22705078 C34.8234668 74.53705078 32.8434668 76.84705078 30.8034668 79.22705078 C30.15837158 80.09579834 29.51327637 80.9645459 28.84863281 81.85961914 C25.56150268 85.88443789 23.18863896 87.96718688 17.99047852 88.94238281 C13.56234154 89.22014888 9.16685245 89.01517304 4.7409668 88.78955078 C3.19225576 88.74432939 1.64341705 88.70327823 0.09448242 88.66650391 C-3.67496111 88.57574684 -7.42644282 88.39987326 -11.1965332 88.22705078 C-11.1965332 93.50705078 -11.1965332 98.78705078 -11.1965332 104.22705078 C-5.9165332 104.22705078 -0.6365332 104.22705078 4.8034668 104.22705078 C-0.48533123 110.69948744 -6.36071677 116.54351476 -12.27539062 122.4362793 C-14.02568197 124.18114796 -15.77048646 125.93137861 -17.51489258 127.68212891 C-18.62329549 128.78987212 -19.73200796 129.89730568 -20.84106445 131.00439453 C-21.36392532 131.52927963 -21.88678619 132.05416473 -22.42549133 132.59495544 C-26.0815422 136.22705078 -26.0815422 136.22705078 -27.1965332 136.22705078 C-27.29011124 120.97999695 -27.36057827 105.7329564 -27.40378189 90.48567963 C-27.42437828 83.40555706 -27.45244249 76.32561327 -27.49829102 69.24560547 C-27.54252547 62.41156829 -27.56567883 55.57771688 -27.57604218 48.74354553 C-27.58342654 46.13767068 -27.59784642 43.53180586 -27.61945343 40.92601013 C-27.64853707 37.2728794 -27.65248694 33.62051325 -27.65063477 29.96728516 C-27.67220642 28.35534775 -27.67220642 28.35534775 -27.69421387 26.71084595 C-27.65192031 18.98948263 -26.18071867 13.59026517 -21.01293945 7.76611328 C-19.89725586 6.81865234 -19.89725586 6.81865234 -18.7590332 5.85205078 C-18.01782227 5.20494141 -17.27661133 4.55783203 -16.51293945 3.89111328 C-11.13607755 0.02847724 -6.39679535 -0.0534226 0 0 Z " fill="#F4DE7A" transform="translate(187.196533203125,287.77294921875)"/>
<path d="M0 0 C0.86625 -0.00257813 1.7325 -0.00515625 2.625 -0.0078125 C5 0.125 5 0.125 8 1.125 C8.02578125 1.970625 8.0515625 2.81625 8.078125 3.6875 C8.46265254 11.37805086 8.95470387 17.8953338 14.45703125 23.6484375 C18.40793428 27.10922851 21.9429209 29.3461652 27.21777344 29.44384766 C28.03832214 29.46371735 28.85887085 29.48358704 29.70428467 29.50405884 C30.58046448 29.51561005 31.45664429 29.52716125 32.359375 29.5390625 C33.26375305 29.55842865 34.1681311 29.5777948 35.09991455 29.5977478 C37.98318099 29.65743831 40.86648758 29.70388686 43.75 29.75 C45.70704848 29.78818947 47.66408033 29.82724177 49.62109375 29.8671875 C54.41392711 29.96313125 59.20683915 30.04720127 64 30.125 C64.02311034 31.53792592 64.03942829 32.95096373 64.05297852 34.36401367 C64.06281265 35.15088058 64.07264679 35.9377475 64.08277893 36.74845886 C63.95250465 40.48856732 63.03259918 43.87676084 61.9375 47.4375 C61.60250488 48.53880249 61.60250488 48.53880249 61.26074219 49.66235352 C55.91466368 66.31702462 44.6783056 79.14363012 29.3125 87.25 C13.1384509 94.90397093 -3.68355741 97.14260404 -20.890625 91.38671875 C-37.69996409 84.56584372 -50.75589181 73.31923937 -58.4921875 56.78515625 C-61.48689203 49.51562737 -64.11203582 42.33690392 -64.03930664 34.40942383 C-64.03363174 33.60523514 -64.02795685 32.80104645 -64.02210999 31.9724884 C-64.01481369 31.36281723 -64.0075174 30.75314606 -64 30.125 C-62.83017578 30.1156543 -61.66035156 30.10630859 -60.45507812 30.09667969 C-56.086211 30.05659938 -51.71803477 29.99079141 -47.34960938 29.91748047 C-45.46428346 29.88937503 -43.57884201 29.86810894 -41.69335938 29.85400391 C-38.972059 29.83242911 -36.25213269 29.78570651 -33.53125 29.734375 C-32.69758911 29.73314636 -31.86392822 29.73191772 -31.00500488 29.73065186 C-24.66664223 29.57446618 -19.22849047 28.10586888 -14.47131348 23.71356201 C-9.98141203 18.62420641 -8.77800909 13.96214996 -8.375 7.3125 C-8.30023438 6.15105469 -8.22546875 4.98960937 -8.1484375 3.79296875 C-8.09945312 2.91253906 -8.05046875 2.03210938 -8 1.125 C-5.05173237 0.14224412 -3.07347496 -0.00914725 0 0 Z " fill="#FCC7A1" transform="translate(320,145.875)"/>
<path d="M0 0 C1.06367294 0.00222061 2.12734589 0.00444122 3.22325134 0.00672913 C5.05031616 0.0069104 5.05031616 0.0069104 6.91429138 0.00709534 C8.20468323 0.0122113 9.49507507 0.01732727 10.8245697 0.02259827 C12.00305481 0.02360535 13.18153992 0.02461243 14.39573669 0.02565002 C18.81863878 0.03090136 23.24152704 0.04486247 27.66441345 0.05775452 C37.54378845 0.07837952 47.42316345 0.09900452 57.60191345 0.12025452 C57.60191345 21.24025452 57.60191345 42.36025452 57.60191345 64.12025452 C28.56191345 64.12025452 -0.47808655 64.12025452 -30.39808655 64.12025452 C-30.39808655 23.12025452 -30.39808655 23.12025452 -23.08558655 14.62025452 C-18.68714905 12.16712952 -18.68714905 12.16712952 -16.48500061 11.15736389 C-13.19720819 9.52346798 -10.72644335 7.27852034 -7.96058655 4.87025452 C-7.09562561 4.16384827 -6.23066467 3.45744202 -5.3394928 2.72962952 C-2.17849224 0.10924273 -2.17849224 0.10924273 0 0 Z " fill="#61311B" transform="translate(358.39808654785156,431.87974548339844)"/>
<path d="M0 0 C1.88349403 -0.0099852 1.88349403 -0.0099852 3.80503845 -0.02017212 C6.44837748 -0.03025724 9.0913044 -0.03586042 11.73461914 -0.03466797 C15.10253194 -0.03446429 18.4696056 -0.06184895 21.83731937 -0.09621239 C25.0790138 -0.12392462 28.3207033 -0.12263218 31.5625 -0.125 C33.36123314 -0.14655655 33.36123314 -0.14655655 35.19630432 -0.16854858 C43.79194165 -0.12180635 48.6684664 1.43506147 55.6953125 6.47265625 C58.63931594 10.64664952 58.26834127 14.17647329 58.02734375 19.1484375 C58.00478516 20.03208984 57.98222656 20.91574219 57.95898438 21.82617188 C57.90031803 23.9968266 57.81064354 26.1666044 57.71484375 28.3359375 C37.90971537 38.08751622 19.36230175 45.8363129 -2.28515625 50.3359375 C-3.10910889 50.5097998 -3.93306152 50.68366211 -4.78198242 50.86279297 C-12.39256884 52.36387507 -20.05659763 53.09524217 -27.7746582 53.76855469 C-29.9799675 53.96157743 -32.18429363 54.16383428 -34.38867188 54.3671875 C-41.04522195 54.96468086 -47.60106001 55.40539468 -54.28515625 55.3359375 C-54.82032973 40.4700074 -52.73513883 28.56743765 -43.12890625 16.6640625 C-30.80113652 3.45573779 -17.38093611 0.03231377 0 0 Z " fill="#794229" transform="translate(294.28515625,31.6640625)"/>
<path d="M0 0 C2.87524727 0.55309772 5.64517812 1.18091143 8.46875 1.97265625 C25.24334576 6.61906152 40.94797317 6.49198473 57.5078125 1.09375 C61 0 61 0 64 0 C66.9173916 34.1418973 66.9173916 34.1418973 58.61914062 45.55395508 C55.88551148 48.77551377 53.03702928 51.83470607 50.0625 54.83422852 C43.08162533 62.16464272 39.65710641 69.60006329 37.125 79.3125 C36.83109375 80.37017578 36.5371875 81.42785156 36.234375 82.51757812 C35.00381779 86.99104872 33.87143301 91.44169545 33 96 C32.34 96 31.68 96 31 96 C30.80365967 95.24380371 30.60731934 94.48760742 30.4050293 93.70849609 C29.50606564 90.26216056 28.5968882 86.81859879 27.6875 83.375 C27.2244043 81.59029297 27.2244043 81.59029297 26.75195312 79.76953125 C26.44580078 78.61582031 26.13964844 77.46210938 25.82421875 76.2734375 C25.54666748 75.21560059 25.26911621 74.15776367 24.9831543 73.06787109 C23.28249618 67.7610745 20.78245578 63.45427701 17.3828125 59.06640625 C16.69316406 58.16986328 16.00351562 57.27332031 15.29296875 56.34960938 C14.57753906 55.42986328 13.86210937 54.51011719 13.125 53.5625 C11.7099734 51.7312133 10.29589031 49.89919712 8.8828125 48.06640625 C8.25777832 47.26146729 7.63274414 46.45652832 6.98876953 45.62719727 C6.00432861 44.32673462 6.00432861 44.32673462 5 43 C4.55866226 42.48101639 4.11732452 41.96203278 3.66261292 41.42732239 C-0.08121234 36.77314803 -0.6904331 33.32684531 -0.48828125 27.44140625 C-0.48120651 26.65225327 -0.47413177 25.86310028 -0.46684265 25.05003357 C-0.43906705 22.55318503 -0.37636813 20.05865944 -0.3125 17.5625 C-0.28739502 15.86005865 -0.26458572 14.15758181 -0.24414062 12.45507812 C-0.18929671 8.30250347 -0.10314841 4.15164422 0 0 Z " fill="#FCC7A1" transform="translate(288,250)"/>
<path d="M0 0 C15.20364397 15.20364397 14.06872593 51.89427544 14.07421875 71.27734375 C14.06655498 80.08650832 13.95268915 88.89269812 13.79229462 97.70027602 C13.66655409 104.73327786 13.6081719 111.76643668 13.55355966 118.80029285 C13.4403321 133.20152271 13.23965423 147.60030018 13 162 C3.1 162 -6.8 162 -17 162 C-15.68 161.01 -14.36 160.02 -13 159 C-11.77982112 155.33946336 -11.82371118 151.94559681 -11.79467773 148.13208008 C-11.78477814 147.33184921 -11.77487854 146.53161835 -11.76467896 145.70713806 C-11.73308397 143.06129925 -11.70831442 140.41544248 -11.68359375 137.76953125 C-11.6630225 135.93535393 -11.64202598 134.10118133 -11.62062073 132.26701355 C-11.56541777 127.4386884 -11.51600063 122.61032058 -11.46777344 117.78192139 C-11.41754548 112.85522666 -11.36186616 107.92859391 -11.30664062 103.00195312 C-11.19908076 93.33468836 -11.09763093 83.66736978 -11 74 C-8.36 74 -5.72 74 -3 74 C-3 68.72 -3 63.44 -3 58 C-5.64 58 -8.28 58 -11 58 C-11.22902648 51.16879053 -11.3861424 44.33857699 -11.49438477 37.50439453 C-11.53952384 35.18207813 -11.60085326 32.86001582 -11.67895508 30.53857422 C-11.78869894 27.19174495 -11.83928939 23.84830594 -11.87890625 20.5 C-11.9485836 18.95421265 -11.9485836 18.95421265 -12.01966858 17.37719727 C-12.02278413 12.88378333 -11.89984133 10.10924356 -9.00680542 6.54296875 C-6.18038305 3.99204884 -3.41409369 1.70704684 0 0 Z " fill="#733A1F" transform="translate(299,334)"/>
<path d="M0 0 C5.28 0 10.56 0 16 0 C16 34.32 16 68.64 16 104 C10.72 104 5.44 104 0 104 C0 82.88 0 61.76 0 40 C-23.76 40 -47.52 40 -72 40 C-72 34.72 -72 29.44 -72 24 C-48.24 24 -24.48 24 0 24 C0 16.08 0 8.16 0 0 Z " fill="#000000" transform="translate(416,392)"/>
<path d="M0 0 C0.25579834 0.52730713 0.51159668 1.05461426 0.77514648 1.59790039 C5.90014616 12.1184778 11.20423016 22.38159193 17.3828125 32.32421875 C19 35 19 35 19 36 C18.04222656 36.00410889 17.08445312 36.00821777 16.09765625 36.01245117 C12.51134952 36.03438203 8.92611839 36.08881207 5.34033203 36.15258789 C3.79453923 36.17564739 2.248592 36.19013512 0.70263672 36.19555664 C-9.56871889 36.23865787 -16.77068639 36.77068639 -24.3125 44.3125 C-26.47547248 47.75723394 -27.69437097 51.14839437 -29 55 C-34.28 55 -39.56 55 -45 55 C-45.515625 53.47375 -46.03125 51.9475 -46.5625 50.375 C-48.9718623 44.34305041 -52.32323718 40.78993701 -58.14941406 37.95361328 C-61.68250178 36.77168106 -64.76424672 36.67495825 -68.48828125 36.5859375 C-69.19147995 36.56657135 -69.89467865 36.5472052 -70.6191864 36.5272522 C-72.85017019 36.46779817 -75.08120654 36.42120951 -77.3125 36.375 C-78.83140186 36.33678863 -80.35028278 36.29773508 -81.86914062 36.2578125 C-85.57923467 36.16212584 -89.28948651 36.07796928 -93 36 C-92.02296079 34.1863523 -91.04330895 32.37411183 -90.0625 30.5625 C-89.51722656 29.55316406 -88.97195313 28.54382813 -88.41015625 27.50390625 C-87 25 -87 25 -86 24 C-83.95394299 23.68912445 -81.89974066 23.4317344 -79.84375 23.1953125 C-53.92902065 19.98993906 -29.14710916 13.46914908 -5.8515625 1.36328125 C-3 0 -3 0 0 0 Z " fill="#FBC6A1" transform="translate(357,76)"/>
<path d="M0 0 C5.28 0 10.56 0 16 0 C16.16221056 15.1338197 16.28704707 30.26753843 16.3626852 45.4020319 C16.39874298 52.42969972 16.44787981 59.45681668 16.52807617 66.48413086 C16.60543818 73.26632844 16.64599431 80.04795345 16.6641407 86.8305645 C16.6770719 89.41779016 16.70232394 92.0049846 16.7401104 94.59196663 C16.79095222 98.2170278 16.7979222 101.83972738 16.79467773 105.46508789 C16.81984467 106.53395737 16.8450116 107.60282684 16.87094116 108.7040863 C16.81781615 114.19222544 16.40374258 117.23474304 12.45033264 121.22093201 C11.32464944 122.17682311 10.18209039 123.11481483 9 124 C5.11962786 122.13414693 2.61921065 120.53174888 0 117 C-0.72309456 113.23089055 -0.63156007 109.51915363 -0.56762695 105.69213867 C-0.56835709 104.55024078 -0.56908722 103.4083429 -0.56983948 102.23184204 C-0.56635798 98.46006663 -0.5274669 94.68952827 -0.48828125 90.91796875 C-0.47895521 88.30195287 -0.47183812 85.68592825 -0.46684265 83.06990051 C-0.45131727 76.88976786 -0.41030721 70.71007874 -0.3600952 64.53014117 C-0.30416049 57.49273703 -0.27670499 50.45531142 -0.25161803 43.41774023 C-0.19938969 28.94492596 -0.11046321 14.47248404 0 0 Z " fill="#763E24" transform="translate(64,184)"/>
<path d="M0 0 C0.91800385 -0.00058411 1.83600769 -0.00116821 2.78182983 -0.00177002 C5.79049622 0.00099781 8.79814914 0.03202806 11.80664062 0.06347656 C13.90270446 0.07094358 15.9987753 0.07663433 18.09484863 0.08062744 C23.592443 0.09584741 29.08960984 0.135098 34.58703613 0.17944336 C40.20444965 0.22047455 45.82193272 0.2386552 51.43945312 0.25878906 C62.44745272 0.30159568 73.45513602 0.36980295 84.46289062 0.45410156 C84.46289062 5.73410156 84.46289062 11.01410156 84.46289062 16.45410156 C48.16289062 16.45410156 11.86289062 16.45410156 -25.53710938 16.45410156 C-24.57290033 12.59726537 -23.95283098 11.34441925 -21.47460938 8.45410156 C-20.92675781 7.79410156 -20.37890625 7.13410156 -19.81445312 6.45410156 C-13.76082114 1.13770435 -7.88499134 -0.13337322 0 0 Z " fill="#3C4C62" transform="translate(187.537109375,463.5458984375)"/>
<path d="M0 0 C12.11784615 -0.09279982 24.23560735 -0.16381588 36.35373688 -0.20724869 C41.98106973 -0.22809737 47.60815892 -0.25636568 53.23535156 -0.30175781 C58.66888311 -0.34531202 64.10218073 -0.36915756 69.53587341 -0.37950897 C71.60586732 -0.38688312 73.67584884 -0.40128312 75.7457428 -0.42292023 C78.65173723 -0.45208117 81.55677273 -0.45595066 84.46289062 -0.45410156 C85.31309784 -0.46848267 86.16330505 -0.48286377 87.03927612 -0.49768066 C94.08352987 -0.44937964 99.25733404 1.55784219 104.53125 6.25390625 C105.50578125 7.39666016 105.50578125 7.39666016 106.5 8.5625 C107.1703125 9.32691406 107.840625 10.09132813 108.53125 10.87890625 C110 13 110 13 110 16 C73.7 16 37.4 16 0 16 C0 10.72 0 5.44 0 0 Z " fill="#3C4C62" transform="translate(32,464)"/>
<path d="M0 0 C0.83096191 -0.00945648 1.66192383 -0.01891296 2.51806641 -0.02865601 C3.41187012 -0.02258331 4.30567383 -0.01651062 5.2265625 -0.01025391 C6.14743652 -0.01312408 7.06831055 -0.01599426 8.01708984 -0.01895142 C9.96387344 -0.02099272 11.91067752 -0.01545824 13.85742188 -0.00292969 C16.84030949 0.01312303 19.82184211 -0.00277613 22.8046875 -0.02197266 C24.6953155 -0.01999024 26.58594265 -0.01614659 28.4765625 -0.01025391 C29.37036621 -0.0163266 30.26416992 -0.02239929 31.18505859 -0.02865601 C32.43150146 -0.01447128 32.43150146 -0.01447128 33.703125 0 C34.79874756 0.00358017 34.79874756 0.00358017 35.91650391 0.00723267 C38.41919622 0.49993245 39.31125083 1.38731312 40.8515625 3.38818359 C41.23974609 6.06787109 41.23974609 6.06787109 41.25 9.26318359 C41.25580078 10.98794922 41.25580078 10.98794922 41.26171875 12.74755859 C41.25011719 13.94896484 41.23851562 15.15037109 41.2265625 16.38818359 C41.23816406 17.58958984 41.24976563 18.79099609 41.26171875 20.02880859 C41.25785156 21.17865234 41.25398438 22.32849609 41.25 23.51318359 C41.24661621 24.56763672 41.24323242 25.62208984 41.23974609 26.70849609 C40.78919173 29.81873801 40.27797859 30.49072817 37.8515625 32.38818359 C35.91650391 32.76913452 35.91650391 32.76913452 33.703125 32.77636719 C32.45668213 32.79055191 32.45668213 32.79055191 31.18505859 32.80502319 C30.29125488 32.7989505 29.39745117 32.79287781 28.4765625 32.78662109 C27.09525146 32.79092636 27.09525146 32.79092636 25.68603516 32.7953186 C23.73925156 32.79735991 21.79244748 32.79182543 19.84570312 32.77929688 C16.86281551 32.76324415 13.88128289 32.77914331 10.8984375 32.79833984 C9.0078095 32.79635742 7.11718235 32.79251377 5.2265625 32.78662109 C4.33275879 32.79269379 3.43895508 32.79876648 2.51806641 32.80502319 C1.27162354 32.79083847 1.27162354 32.79083847 0 32.77636719 C-0.73041504 32.77398041 -1.46083008 32.77159363 -2.21337891 32.76913452 C-4.71607122 32.27643473 -5.60812583 31.38905407 -7.1484375 29.38818359 C-7.53662109 26.70849609 -7.53662109 26.70849609 -7.546875 23.51318359 C-7.55074219 22.36333984 -7.55460937 21.21349609 -7.55859375 20.02880859 C-7.54699219 18.82740234 -7.53539062 17.62599609 -7.5234375 16.38818359 C-7.53503906 15.18677734 -7.54664063 13.98537109 -7.55859375 12.74755859 C-7.55472656 11.59771484 -7.55085938 10.44787109 -7.546875 9.26318359 C-7.54349121 8.20873047 -7.54010742 7.15427734 -7.53662109 6.06787109 C-6.86299245 1.41771513 -4.52723352 0.01479366 0 0 Z " fill="#DFDFDD" transform="translate(351.1484375,127.61181640625)"/>
<path d="M0 0 C0.83096191 -0.00945648 1.66192383 -0.01891296 2.51806641 -0.02865601 C3.41187012 -0.02258331 4.30567383 -0.01651062 5.2265625 -0.01025391 C6.14743652 -0.01312408 7.06831055 -0.01599426 8.01708984 -0.01895142 C9.96387344 -0.02099272 11.91067752 -0.01545824 13.85742188 -0.00292969 C16.84030949 0.01312303 19.82184211 -0.00277613 22.8046875 -0.02197266 C24.6953155 -0.01999024 26.58594265 -0.01614659 28.4765625 -0.01025391 C29.37036621 -0.0163266 30.26416992 -0.02239929 31.18505859 -0.02865601 C32.43150146 -0.01447128 32.43150146 -0.01447128 33.703125 0 C34.79874756 0.00358017 34.79874756 0.00358017 35.91650391 0.00723267 C38.41919622 0.49993245 39.31125083 1.38731312 40.8515625 3.38818359 C41.23974609 6.06787109 41.23974609 6.06787109 41.25 9.26318359 C41.25580078 10.98794922 41.25580078 10.98794922 41.26171875 12.74755859 C41.25011719 13.94896484 41.23851562 15.15037109 41.2265625 16.38818359 C41.23816406 17.58958984 41.24976563 18.79099609 41.26171875 20.02880859 C41.25785156 21.17865234 41.25398438 22.32849609 41.25 23.51318359 C41.24661621 24.56763672 41.24323242 25.62208984 41.23974609 26.70849609 C40.78919173 29.81873801 40.27797859 30.49072817 37.8515625 32.38818359 C35.91650391 32.76913452 35.91650391 32.76913452 33.703125 32.77636719 C32.45668213 32.79055191 32.45668213 32.79055191 31.18505859 32.80502319 C30.29125488 32.7989505 29.39745117 32.79287781 28.4765625 32.78662109 C27.09525146 32.79092636 27.09525146 32.79092636 25.68603516 32.7953186 C23.73925156 32.79735991 21.79244748 32.79182543 19.84570312 32.77929688 C16.86281551 32.76324415 13.88128289 32.77914331 10.8984375 32.79833984 C9.0078095 32.79635742 7.11718235 32.79251377 5.2265625 32.78662109 C4.33275879 32.79269379 3.43895508 32.79876648 2.51806641 32.80502319 C1.27162354 32.79083847 1.27162354 32.79083847 0 32.77636719 C-0.73041504 32.77398041 -1.46083008 32.77159363 -2.21337891 32.76913452 C-4.71607122 32.27643473 -5.60812583 31.38905407 -7.1484375 29.38818359 C-7.53662109 26.70849609 -7.53662109 26.70849609 -7.546875 23.51318359 C-7.55074219 22.36333984 -7.55460938 21.21349609 -7.55859375 20.02880859 C-7.54699219 18.82740234 -7.53539062 17.62599609 -7.5234375 16.38818359 C-7.53503906 15.18677734 -7.54664063 13.98537109 -7.55859375 12.74755859 C-7.55472656 11.59771484 -7.55085937 10.44787109 -7.546875 9.26318359 C-7.54349121 8.20873047 -7.54010742 7.15427734 -7.53662109 6.06787109 C-6.86299245 1.41771513 -4.52723352 0.01479366 0 0 Z " fill="#DFDFDD" transform="translate(255.1484375,127.61181640625)"/>
<path d="M0 0 C26.4 0 52.8 0 80 0 C80 5.28 80 10.56 80 16 C53.6 16 27.2 16 0 16 C0 10.72 0 5.44 0 0 Z " fill="#000000" transform="translate(176,408)"/>
<path d="M0 0 C26.4 0 52.8 0 80 0 C80 5.28 80 10.56 80 16 C53.6 16 27.2 16 0 16 C0 10.72 0 5.44 0 0 Z " fill="#000000" transform="translate(48,408)"/>
<path d="M0 0 C26.4 0 52.8 0 80 0 C80 5.28 80 10.56 80 16 C53.6 16 27.2 16 0 16 C0 10.72 0 5.44 0 0 Z " fill="#000000" transform="translate(48,376)"/>
<path d="M0 0 C26.4 0 52.8 0 80 0 C80 5.28 80 10.56 80 16 C53.6 16 27.2 16 0 16 C0 10.72 0 5.44 0 0 Z " fill="#000000" transform="translate(176,344)"/>
<path d="M0 0 C26.4 0 52.8 0 80 0 C80 5.28 80 10.56 80 16 C53.6 16 27.2 16 0 16 C0 10.72 0 5.44 0 0 Z " fill="#000000" transform="translate(48,344)"/>
<path d="M0 0 C26.4 0 52.8 0 80 0 C80 5.28 80 10.56 80 16 C53.6 16 27.2 16 0 16 C0 10.72 0 5.44 0 0 Z " fill="#000000" transform="translate(176,312)"/>
<path d="M0 0 C8.35861766 -0.77394608 13.82121221 2.34077141 20.75 6.75 C27.0518578 13.0518578 32.02143055 21.3278043 32.34057617 30.39648438 C32.34010943 31.96231993 32.32365632 33.52821512 32.29296875 35.09375 C32.28872391 35.92588013 32.28447906 36.75801025 32.28010559 37.61535645 C32.26346307 40.24391593 32.22583976 42.87167667 32.1875 45.5 C32.17243444 47.29425967 32.15874933 49.0885315 32.14648438 50.8828125 C32.11360714 55.25551083 32.06192722 59.62762053 32 64 C29.65014648 64.1730957 29.65014648 64.1730957 27 64 C25.043036 61.7439228 23.59663817 59.71676262 22.0625 57.1875 C21.60302979 56.45499023 21.14355957 55.72248047 20.67016602 54.96777344 C-0.45520945 20.45937994 -0.45520945 20.45937994 -0.125 7.1875 C-0.11597656 6.49462891 -0.10695313 5.80175781 -0.09765625 5.08789062 C-0.07426157 3.39177605 -0.03839641 1.69584129 0 0 Z " fill="#723A1F" transform="translate(368,48)"/>
<path d="M0 0 C6.27 0 12.54 0 19 0 C19 6.58385707 18.79859191 11.26111859 16.9375 17.3125 C16.71416992 18.04670166 16.49083984 18.78090332 16.26074219 19.53735352 C10.91466368 36.19202462 -0.3216944 49.01863012 -15.6875 57.125 C-31.27420841 64.63117851 -31.27420841 64.63117851 -37.375 63.59765625 C-38.179375 63.30181641 -38.179375 63.30181641 -39 63 C-38.46632813 62.74347656 -37.93265625 62.48695313 -37.3828125 62.22265625 C-30.63821198 58.75700512 -25.39774702 54.28979208 -20 49 C-19.3709375 48.40703125 -18.741875 47.8140625 -18.09375 47.203125 C-5.7895013 34.56330589 -2.16408107 16.81324526 0 0 Z " fill="#FABD91" transform="translate(365,176)"/>
<path d="M0 0 C0.67220351 1.93558599 1.33758077 3.87354372 2 5.8125 C2.37125 6.89144531 2.7425 7.97039062 3.125 9.08203125 C4 12 4 12 4 15 C-8.09372568 19.50952483 -19.98434409 20.30026645 -32.8125 20.125 C-34.08931641 20.11597656 -35.36613281 20.10695312 -36.68164062 20.09765625 C-39.78784384 20.07438881 -42.89394863 20.03853131 -46 20 C-46 14.72 -46 9.44 -46 4 C-44.05738281 3.96261719 -42.11476563 3.92523438 -40.11328125 3.88671875 C-38.18348797 3.83795141 -36.25369605 3.78908023 -34.32397461 3.73754883 C-32.36658166 3.68884564 -30.40886388 3.6537988 -28.45117188 3.61914062 C-20.89901032 3.40775697 -14.0034237 2.57860218 -6.69604492 0.63208008 C-4 0 -4 0 0 0 Z " fill="#020201" transform="translate(342,180)"/>
<path d="M0 0 C15.84 0 31.68 0 48 0 C48 5.28 48 10.56 48 16 C32.16 16 16.32 16 0 16 C0 10.72 0 5.44 0 0 Z " fill="#000000" transform="translate(176,376)"/>
<path d="M0 0 C2.35009162 0.24334282 4.33484998 0.68813511 6.56201172 1.46435547 C7.55201172 1.79435547 8.54201172 2.12435547 9.56201172 2.46435547 C9.83959054 9.72617572 8.77464975 16.61734571 7.62451172 23.77685547 C7.44210937 24.95570313 7.25970703 26.13455078 7.07177734 27.34912109 C5.70691499 36.02964565 5.70691499 36.02964565 4.56201172 39.46435547 C0.42384734 37.69970183 -2.88054433 34.92497748 -6.37548828 32.15185547 C-6.98328125 31.678125 -7.59107422 31.20439453 -8.21728516 30.71630859 C-11.87442866 27.83241226 -15.21251237 24.82448123 -18.43798828 21.46435547 C-16.01013687 17.90550349 -13.51337238 14.40106339 -11.00048828 10.90185547 C-10.31277344 9.891875 -9.62505859 8.88189453 -8.91650391 7.84130859 C-3.71772696 0.70810301 -3.71772696 0.70810301 0 0 Z " fill="#915438" transform="translate(365.43798828125,296.53564453125)"/>
<path d="M0 0 C0 9.57 0 19.14 0 29 C-9.9 29 -19.8 29 -30 29 C-28.68 28.01 -27.36 27.02 -26 26 C-25.49234917 23.29810714 -25.49234917 23.29810714 -25.4375 20.296875 C-24.90842808 16.44718063 -24.52274336 14.54944262 -21.8203125 11.70898438 C-18.95969734 9.69318261 -16.06062882 7.94606635 -13 6.25 C-11.97648437 5.63640625 -10.95296875 5.0228125 -9.8984375 4.390625 C-2.46965681 0 -2.46965681 0 0 0 Z " fill="#60301A" transform="translate(312,467)"/>
<path d="M0 0 C3.20189713 3.20189713 2.29542548 6.90630147 2.32226562 11.27148438 C2.31904297 12.48126953 2.31582031 13.69105469 2.3125 14.9375 C2.32861328 16.14341797 2.34472656 17.34933594 2.36132812 18.59179688 C2.36197266 19.74615234 2.36261719 20.90050781 2.36328125 22.08984375 C2.36626221 23.15066162 2.36924316 24.21147949 2.37231445 25.30444336 C2 28 2 28 0.87841797 29.85107422 C-1.90966271 31.55639105 -4.17157617 31.33703743 -7.41796875 31.29296875 C-8.67158203 31.28330078 -9.92519531 31.27363281 -11.21679688 31.26367188 C-13.18229492 31.2259668 -13.18229492 31.2259668 -15.1875 31.1875 C-16.52277163 31.17244967 -17.85805937 31.15876187 -19.19335938 31.14648438 C-22.46264576 31.11107694 -25.73112093 31.0616889 -29 31 C-23.64602018 24.47854246 -17.68698091 18.60578929 -11.6875 12.6875 C-9.68853383 10.71511498 -7.6929078 8.73943603 -5.69921875 6.76171875 C-4.82096436 5.89506592 -3.94270996 5.02841309 -3.0378418 4.13549805 C-0.96272827 2.17041329 -0.96272827 2.17041329 0 0 Z " fill="#D5D5D3" transform="translate(390,129)"/>
<path d="M0 0 C3.20189713 3.20189713 2.29542548 6.90630147 2.32226562 11.27148438 C2.31904297 12.48126953 2.31582031 13.69105469 2.3125 14.9375 C2.32861328 16.14341797 2.34472656 17.34933594 2.36132812 18.59179688 C2.36197266 19.74615234 2.36261719 20.90050781 2.36328125 22.08984375 C2.36626221 23.15066162 2.36924316 24.21147949 2.37231445 25.30444336 C2 28 2 28 0.87841797 29.85107422 C-1.90966271 31.55639105 -4.17157617 31.33703743 -7.41796875 31.29296875 C-8.67158203 31.28330078 -9.92519531 31.27363281 -11.21679688 31.26367188 C-13.18229492 31.2259668 -13.18229492 31.2259668 -15.1875 31.1875 C-16.52277163 31.17244967 -17.85805937 31.15876187 -19.19335938 31.14648438 C-22.46264576 31.11107694 -25.73112093 31.0616889 -29 31 C-23.64602018 24.47854246 -17.68698091 18.60578929 -11.6875 12.6875 C-9.68853383 10.71511498 -7.6929078 8.73943603 -5.69921875 6.76171875 C-4.82096436 5.89506592 -3.94270996 5.02841309 -3.0378418 4.13549805 C-0.96272827 2.17041329 -0.96272827 2.17041329 0 0 Z " fill="#D5D5D3" transform="translate(294,129)"/>
<path d="M0 0 C2.87808041 0.52580315 5.64889348 1.18195324 8.46875 1.97265625 C25.24334576 6.61906152 40.94797317 6.49198473 57.5078125 1.09375 C61 0 61 0 64 0 C64 2.31 64 4.62 64 7 C45.79134523 13.90745952 45.79134523 13.90745952 37 14 C36.26523437 14.04898437 35.53046875 14.09796875 34.7734375 14.1484375 C23.08038929 14.6568309 10.50821011 12.08628352 0 7 C0 4.69 0 2.38 0 0 Z " fill="#FAB482" transform="translate(288,250)"/>
<path d="M0 0 C5.28 0 10.56 0 16 0 C16 5.28 16 10.56 16 16 C10.72 16 5.44 16 0 16 C0 10.72 0 5.44 0 0 Z " fill="#000000" transform="translate(240,376)"/>
<path d="M0 0 C2.61992041 1.10168201 3.49552294 2.30771902 4.8671875 4.78515625 C5.25589756 8.49604167 5.00088387 12.04165786 4.8671875 15.78515625 C-0.4128125 15.78515625 -5.6928125 15.78515625 -11.1328125 15.78515625 C-11.73637903 5.76595186 -11.73637903 5.76595186 -9.1328125 1.53515625 C-5.62202189 -0.51280494 -3.91073802 -0.54019922 0 0 Z " fill="#774129" transform="translate(75.1328125,152.21484375)"/>
<path d="M0 0 C0.66 0 1.32 0 2 0 C2 8.58 2 17.16 2 26 C-2.56092392 23.71953804 -3.74458175 22.5108365 -6 18 C-6.83677344 12.84547564 -6.60609556 9.13137837 -4.125 4.5 C-2 2 -2 2 0 0 Z " fill="#F4B07F" transform="translate(230,131)"/>
<path d="M0 0 C4.50950852 2.25475426 5.71063381 3.58479377 8 8 C8.66271445 13.96443001 7.79337984 17.72361585 5 23 C3.4375 24.9375 3.4375 24.9375 2 26 C1.34 26 0.68 26 0 26 C0 17.42 0 8.84 0 0 Z " fill="#F6B17F" transform="translate(408,131)"/>
<path d="M0 0 C3.00584565 3.75730707 5.37464392 7.1286557 7.75 11.25 C8.67039062 12.83554688 8.67039062 12.83554688 9.609375 14.453125 C11 17 11 17 11 18 C7.37 18 3.74 18 0 18 C0 12.06 0 6.12 0 0 Z " fill="#F8BB8F" transform="translate(365,94)"/>
<path d="M0 0 C3.3 0 6.6 0 10 0 C8.76344399 3.42430894 7.59887381 6.40112619 5 9 C2.3125 9.25 2.3125 9.25 0 9 C0 6.03 0 3.06 0 0 Z " fill="#864E35" transform="translate(240,103)"/>
<path d="M0 0 C1.65 1.65 3.3 3.3 5 5 C3.68799596 6.35432675 2.35368596 7.68733482 1 9 C0.67 9 0.34 9 0 9 C0 6.03 0 3.06 0 0 Z " fill="#8B5136" transform="translate(288,313)"/>
</svg>
